<svg id="Postranni_lista" data-name="Postranni lista" xmlns="http://www.w3.org/2000/svg" viewBox="0 0 77.25292 21.4541"><title>logo-virtubio</title><g id="Logo"><g id="Logo-2" data-name="Logo"><path d="M970.14838,741.7578h0.7725L966.584,753.4502h-0.63192l-4.3359-11.6924h0.7725l3.8799,10.6563Z" transform="translate(-936.74708 -736.5459)" style="fill:#01579b"/><path d="M972.13178,742.4072a0.63,0.63,0,0,1,.1758-0.4482,0.65944,0.65944,0,0,1,.9131,0,0.65809,0.65809,0,0,1,0,.8955,0.65687,0.65687,0,0,1-.9131,0A0.62976,0.62976,0,0,1,972.13178,742.4072Zm0.2461,11.043v-8.3223h0.7725v8.3223h-0.7725Z" transform="translate(-936.74708 -736.5459)" style="fill:#01579b"/><path d="M979.66408,745.6895h-0.2813a3.38159,3.38159,0,0,0-1.79878.4658,4.16972,4.16972,0,0,0-1.34382,1.3955v5.8994h-0.7724v-8.3223h0.7197v1.7207a3.37474,3.37474,0,0,1,1.1846-1.3427,3.17578,3.17578,0,0,1,1.7832-.501c0.09272,0,.1865.0029,0.2802,0.0088a0.8182,0.8182,0,0,1,.2286.0439v0.6319Z" transform="translate(-936.74708 -736.5459)" style="fill:#01579b"/><path d="M985.00978,753.501a4.04529,4.04529,0,0,1-.8252.0888,2.35776,2.35776,0,0,1-1.0537-.2099,1.76444,1.76444,0,0,1-.6758-0.5781,2.45653,2.45653,0,0,1-.3682-0.8936,5.438,5.438,0,0,1-.1142-1.1562v-4.9571h-1.5284v-0.667h1.5284v-2.1416h0.7724v2.1416h2.9317v0.667h-2.9317v4.9092a3.61235,3.61235,0,0,0,.2988,1.6602,1.24438,1.24438,0,0,0,1.211.5586,3.64763,3.64763,0,0,0,.6933-0.0616,3.96974,3.96974,0,0,0,.6582-0.1836l0.0879,0.6241A4.13349,4.13349,0,0,1,985.00978,753.501Z" transform="translate(-936.74708 -736.5459)" style="fill:#01579b"/><path d="M992.69727,752.1855a4.1877,4.1877,0,0,1-1.2559,1.0538,3.31365,3.31365,0,0,1-1.6055.3857,2.40964,2.40964,0,0,1-1.2724-.3242,2.6223,2.6223,0,0,1-.878-0.8779,4.04287,4.04287,0,0,1-.5009-1.2901,7.4422,7.4422,0,0,1-.1582-1.5635v-4.4414h0.7724v4.3184a8.37252,8.37252,0,0,0,.1055,1.3613,3.58919,3.58919,0,0,0,.3594,1.1153,2.04666,2.04666,0,0,0,.6855.7548,1.94238,1.94238,0,0,0,1.0801.2803,2.6195,2.6195,0,0,0,1.4043-.4131,5.16182,5.16182,0,0,0,1.2109-1.0439v-6.3731H993.417v8.3223h-0.71973v-1.2647Z" transform="translate(-936.74708 -736.5459)" style="fill:#01579b"/><path d="M1002.2529,749.2363a5.19785,5.19785,0,0,1-.2802,1.7295,4.01943,4.01943,0,0,1-.8164,1.3867,3.8553,3.8553,0,0,1-1.30863.9307,4.24549,4.24549,0,0,1-1.7383.3418,6.81645,6.81645,0,0,1-2.6153-.4912V741.0547h0.7725v4.916a3.95552,3.95552,0,0,1,1.0801-.7109,3.45569,3.45569,0,0,1,1.4834-.3067,3.17246,3.17246,0,0,1,1.48243.333,3.10132,3.10132,0,0,1,1.0723.9131,4.15589,4.15589,0,0,1,.6494,1.3604A6.2083,6.2083,0,0,1,1002.2529,749.2363Zm-0.7724,0a6.03874,6.03874,0,0,0-.1582-1.4131,3.34349,3.34349,0,0,0-.5-1.1503,2.45563,2.45563,0,0,0-.86923-0.7725,2.62226,2.62226,0,0,0-1.24607-.2813,3.07472,3.07472,0,0,0-1.29883.2901,4.805,4.805,0,0,0-1.1416.7285v6.0225a5.79625,5.79625,0,0,0,.81643.2187,5.57678,5.57678,0,0,0,1.02637.0791,3.52519,3.52519,0,0,0,1.4404-.2803,2.987,2.987,0,0,0,1.06253-.7812,3.39929,3.39929,0,0,0,.6494-1.1768A4.80489,4.80489,0,0,0,1001.4805,749.2363Z" transform="translate(-936.74708 -736.5459)" style="fill:#01579b"/><path d="M1003.7246,742.4072a0.62581,0.62581,0,0,1,.1758-0.4482,0.6582,0.6582,0,0,1,.9121,0,0.65809,0.65809,0,0,1,0,.8955,0.65563,0.65563,0,0,1-.9121,0A0.62553,0.62553,0,0,1,1003.7246,742.4072Z" transform="translate(-936.74708 -736.5459)" style="fill:#ef6c00"/><rect x="67.22362" y="8.582" width="0.7715" height="8.3223" style="fill:#01579b"/><path d="M1014,749.2891a5.54515,5.54515,0,0,1-.2373,1.623,4.19776,4.19776,0,0,1-.7109,1.3877,3.47391,3.47391,0,0,1-1.1856.9658,3.9288,3.9288,0,0,1-3.2832,0,3.47979,3.47979,0,0,1-1.1846-.9658,4.21667,4.21667,0,0,1-.7109-1.3877,5.67262,5.67262,0,0,1,0-3.2471,4.22152,4.22152,0,0,1,.7109-1.3867,3.47979,3.47979,0,0,1,1.1846-.9658,3.9288,3.9288,0,0,1,3.2832,0,3.47391,3.47391,0,0,1,1.1856.9658,4.20254,4.20254,0,0,1,.7109,1.3867A5.55253,5.55253,0,0,1,1014,749.2891Zm-0.7725,0a5.2277,5.2277,0,0,0-.1933-1.4317,3.48278,3.48278,0,0,0-.5703-1.167,2.83179,2.83179,0,0,0-4.4766,0,3.44708,3.44708,0,0,0-.5713,1.167,5.4272,5.4272,0,0,0,0,2.8711,3.428,3.428,0,0,0,.5713,1.1582,2.74133,2.74133,0,0,0,.9385.7813,3.05566,3.05566,0,0,0,2.5986,0,2.76359,2.76359,0,0,0,.9395-0.7813,3.46366,3.46366,0,0,0,.5703-1.1582A5.18693,5.18693,0,0,0,1013.2275,749.2891Z" transform="translate(-936.74708 -736.5459)" style="fill:#01579b"/><circle cx="5.93088" cy="3.57712" r="2.11501" style="fill:#01579b"/><circle cx="10.3906" cy="1.41037" r="1.40993" style="fill:#0277bd"/><circle cx="16.29391" cy="16.88647" r="2.48167" style="fill:#039be5"/><circle cx="10.03317" cy="10.06052" r="1.01565" style="fill:#0277bd"/><circle cx="6.00291" cy="13.08032" r="1.01537" style="fill:#01579b"/><circle cx="1.31518" cy="11.43772" r="1.31496" style="fill:#039be5"/><circle cx="6.37791" cy="18.7534" r="1.6465" style="fill:#01579b"/><circle cx="14.41402" cy="1.73755" r="1.01488" style="fill:#039be5"/><circle cx="17.2988" cy="3.57152" r="1.01537" style="fill:#01579b"/><circle cx="18.97237" cy="8.26437" r="2.14355" style="fill:#0277bd"/><circle cx="15.20847" cy="11.8335" r="1.69238" style="fill:#0277bd"/><circle cx="2.03295" cy="7.1836" r="1.35375" style="fill:#0277bd"/><circle cx="11.72558" cy="19.7617" r="1.69238" style="fill:#01579b"/><circle cx="10.0332" cy="5.802" r="1.24145" style="fill:#039be5"/><circle cx="19.84738" cy="13.47267" r="1.24101" style="fill:#01579b"/><circle cx="2.90892" cy="15.333" r="1.69262" style="fill:#0277bd"/><polygon points="14.625 6.27 13.993 5.981 9.854 14.978 6.564 8.382 5.942 8.692 9.556 15.938 10.184 15.928 14.625 6.27" style="fill:#4fc3f7"/><circle cx="6.25366" cy="8.5376" r="1.80545" style="fill:#ef6c00"/><circle cx="14.30907" cy="6.1265" r="1.72853" style="fill:#01579b"/><circle cx="9.86787" cy="15.78322" r="1.7776" style="fill:#0277bd"/></g></g></svg>